<?xml version="1.0" encoding="iso-8859-1"?>
<!-- Uploaded to: SVG Repo, www.svgrepo.com, Generator: SVG Repo Mixer Tools -->
<svg fill="#000000" version="1.1" id="Layer_1" xmlns="http://www.w3.org/2000/svg" xmlns:xlink="http://www.w3.org/1999/xlink" 
	 viewBox="0 0 512 512" xml:space="preserve">
<g>
	<g>
		<path d="M448,283.429c-6.693,0-12.882,1.938-18.286,5.083V192c0-25.207-20.507-45.714-45.714-45.714h-4.937
			c8.722-9.719,14.08-22.51,14.08-36.571c0-5.925-0.969-11.611-2.715-16.96l25.353,15.598l9.582-15.57l-21.605-13.294
			c3.163-8.722,3.666-18.167,1.216-27.31c-3.163-11.794-10.725-21.65-21.303-27.758c-18.67-10.77-41.783-6.757-55.991,8.256
			l-21.175-13.029l-9.582,15.57l33.051,20.343c-26.304,4.023-46.546,26.734-46.546,54.153c0,14.062,5.358,26.853,14.08,36.571
			h-4.937c-15.003,0-28.233,7.369-36.571,18.569c-8.338-11.2-21.568-18.569-36.571-18.569h-4.937
			c8.722-9.719,14.08-22.51,14.08-36.571s-5.358-26.853-14.08-36.571h14.08V54.857h-18.286V9.143c0-5.047-4.096-9.143-9.143-9.143
			h-54.857c-5.047,0-9.143,4.096-9.143,9.143v45.714h-18.286v18.286h14.08c-8.722,9.719-14.08,22.51-14.08,36.571
			s5.358,26.853,14.08,36.571H128c-25.207,0-45.714,20.507-45.714,45.714v96.512c-5.403-3.145-11.593-5.083-18.286-5.083
			c-20.169,0-36.571,16.402-36.571,36.571v192h18.286V320c0-10.085,8.201-18.286,18.286-18.286S82.286,309.915,82.286,320
			c0,5.047,4.096,9.143,9.143,9.143h27.429v173.714c0,5.047,4.096,9.143,9.143,9.143h45.714h9.143
			c25.207,0,45.714-20.507,45.714-45.714V329.143H256h23.067l-31.561,78.885c-1.125,2.816-0.777,6.007,0.923,8.521
			c1.701,2.514,4.535,4.023,7.57,4.023h27.429v82.286c0,5.047,4.096,9.143,9.143,9.143h45.714h9.143
			c25.207,0,45.714-20.507,45.714-45.714v-45.714h27.429c3.035,0,5.87-1.509,7.57-4.014s2.048-5.705,0.923-8.521l-31.561-78.894
			h23.067c5.047,0,9.143-4.096,9.143-9.143c0-10.085,8.201-18.286,18.286-18.286c10.085,0,18.286,8.201,18.286,18.286v192h18.286
			V320C484.571,299.831,468.169,283.429,448,283.429z M155.429,18.286H192v36.571h-36.571V18.286z M173.714,73.143
			c20.169,0,36.571,16.402,36.571,36.571s-16.402,36.571-36.571,36.571s-36.571-16.402-36.571-36.571S153.545,73.143,173.714,73.143
			z M246.857,310.857h-18.286V192h-18.286v274.286c0,15.122-12.306,27.429-27.429,27.429V329.143h-18.286v164.571h-27.429V192
			h-18.286v118.857h-18.286V192c0-15.122,12.306-27.429,27.429-27.429h91.429c15.122,0,27.429,12.306,27.429,27.429V310.857z
			 M374.528,40.256c6.345,3.657,10.88,9.573,12.782,16.649c1.125,4.197,1.115,8.485,0.265,12.626L343.79,42.587
			C352.347,35.794,364.507,34.478,374.528,40.256z M338.286,73.143c20.169,0,36.571,16.402,36.571,36.571
			s-16.402,36.571-36.571,36.571c-20.169,0-36.571-16.402-36.571-36.571S318.117,73.143,338.286,73.143z M329.143,493.714h-27.429
			v-73.143h27.429V493.714z M374.857,466.286c0,15.122-12.306,27.429-27.429,27.429v-73.143h27.429V466.286z M407.067,402.286
			H269.504l31.561-78.885c0.43-1.088,0.649-2.24,0.649-3.401v-9.143v-9.143h73.143v9.143V320c0,1.161,0.219,2.313,0.649,3.401
			L407.067,402.286z M301.714,283.429v-18.286h73.143v18.286H301.714z M411.429,310.857h-18.286v-18.286V256v-64h-18.286v54.857
			h-73.143V192h-18.286v64v36.571v18.286h-18.286V192c0-15.122,12.306-27.429,27.429-27.429H384
			c15.122,0,27.429,12.306,27.429,27.429V310.857z"/>
	</g>
</g>
<g>
	<g>
		<rect x="164.571" y="182.857" width="18.286" height="18.286"/>
	</g>
</g>
<g>
	<g>
		<rect x="164.571" y="219.429" width="18.286" height="18.286"/>
	</g>
</g>
<g>
	<g>
		<rect x="164.571" y="256" width="18.286" height="18.286"/>
	</g>
</g>
<g>
	<g>
		<rect x="292.571" y="365.714" width="18.286" height="18.286"/>
	</g>
</g>
<g>
	<g>
		<rect x="329.143" y="365.714" width="18.286" height="18.286"/>
	</g>
</g>
<g>
	<g>
		<rect x="365.714" y="365.714" width="18.286" height="18.286"/>
	</g>
</g>
</svg>