<?xml version="1.0" encoding="iso-8859-1"?>
<!-- Uploaded to: SVG Repo, www.svgrepo.com, Generator: SVG Repo Mixer Tools -->
<svg fill="#000000" height="800px" width="800px" version="1.1" id="Layer_1" xmlns="http://www.w3.org/2000/svg" xmlns:xlink="http://www.w3.org/1999/xlink" 
	 viewBox="0 0 507.661 507.661" xml:space="preserve">
<g transform="translate(1 1)">
	<g>
		<g>
			<path d="M339.61,377.359c-4.339-1.736-9.546,1.736-10.414,6.075c-5.207,24.298-18.224,46.861-36.447,65.085
				c-53.803,53.803-142.319,53.803-196.122,0c-26.034-26.034-40.786-60.746-40.786-98.061s14.752-72.027,40.786-98.061
				c0.659-0.659,1.328-1.304,1.998-1.948c1.573-0.35,2.827-1.142,4.076-2.391c0.947-0.947,1.626-2.024,2.056-3.159
				c54.243-46.173,136.817-43.677,187.991,7.498c9.546,8.678,17.356,19.092,23.431,30.373c2.603,4.339,7.81,6.075,12.149,3.471
				s6.075-7.81,3.471-12.149c-6.942-12.149-15.62-23.43-26.034-33.844C248.015,183.31,157.48,179.741,96.333,229.54l-48.303-48.303
				h39.919c5.207,0,8.678-3.471,8.678-8.678s-3.471-8.678-8.678-8.678H27.203c-5.207,0-8.678,3.471-8.678,8.678v60.746
				c0,5.207,3.471,8.678,8.678,8.678s8.678-3.471,8.678-8.678v-39.919l47.739,47.739c-28.962,29.4-45.136,68.087-45.136,109.332
				c0,41.654,16.488,80.705,45.993,110.21c30.373,30.373,70.292,45.993,110.21,45.993s79.837-14.753,109.342-45.125
				c20.827-20.827,34.712-45.993,41.654-73.763C347.42,383.434,343.949,378.227,339.61,377.359z"/>
			<path d="M478.458-1h-60.746c-5.207,0-8.678,3.471-8.678,8.678s3.471,8.678,8.678,8.678h39.051l-51.874,51.873
				c-61.89-54.39-155.964-52.307-214.54,6.269c-22.563,22.563-38.183,51.2-43.39,83.308c-0.868,5.207,2.603,9.546,6.942,10.414
				c5.207,0.868,9.546-2.603,10.414-6.942c4.339-27.769,18.224-53.803,38.183-73.763c53.803-53.803,142.319-53.803,196.99-0.868
				c53.803,53.803,53.803,142.319,0,196.122c-53.803,53.803-142.319,53.803-196.122,0c-9.546-9.546-18.224-19.959-24.298-32.108
				c-2.603-4.339-7.81-6.075-12.149-3.471s-6.075,7.81-3.471,12.149c6.942,13.017,16.488,26.034,26.902,36.447
				c30.373,30.373,70.292,45.993,110.21,45.993s79.837-15.62,111.078-45.993c58.854-59.695,60.687-154.417,5.498-215.505
				l52.645-52.645v40.786c0,5.207,3.471,8.678,8.678,8.678c5.207,0,8.678-3.471,8.678-8.678V7.678
				C487.136,2.471,483.664-1,478.458-1z"/>
		</g>
	</g>
</g>
</svg>