<svg width="68" height="10" viewBox="0 0 68 10" fill="none" xmlns="http://www.w3.org/2000/svg">
<path d="M7.3125 1V9H6.375L2.01563 2.71875H1.9375V9H0.96875V1H1.90625L6.28125 7.29687H6.35938V1H7.3125ZM11.5635 9.125C11.0218 9.125 10.5465 8.99609 10.1377 8.73828C9.73145 8.48047 9.41374 8.11979 9.18457 7.65625C8.95801 7.19271 8.84473 6.65104 8.84473 6.03125C8.84473 5.40625 8.95801 4.86068 9.18457 4.39453C9.41374 3.92839 9.73145 3.56641 10.1377 3.30859C10.5465 3.05078 11.0218 2.92188 11.5635 2.92188C12.1051 2.92188 12.5791 3.05078 12.9854 3.30859C13.3942 3.56641 13.7119 3.92839 13.9385 4.39453C14.1676 4.86068 14.2822 5.40625 14.2822 6.03125C14.2822 6.65104 14.1676 7.19271 13.9385 7.65625C13.7119 8.11979 13.3942 8.48047 12.9854 8.73828C12.5791 8.99609 12.1051 9.125 11.5635 9.125ZM11.5635 8.29688C11.9749 8.29688 12.3135 8.19141 12.5791 7.98047C12.8447 7.76953 13.0413 7.49219 13.1689 7.14844C13.2965 6.80469 13.3604 6.43229 13.3604 6.03125C13.3604 5.63021 13.2965 5.25651 13.1689 4.91016C13.0413 4.5638 12.8447 4.28385 12.5791 4.07031C12.3135 3.85677 11.9749 3.75 11.5635 3.75C11.152 3.75 10.8135 3.85677 10.5479 4.07031C10.2822 4.28385 10.0856 4.5638 9.95801 4.91016C9.8304 5.25651 9.7666 5.63021 9.7666 6.03125C9.7666 6.43229 9.8304 6.80469 9.95801 7.14844C10.0856 7.49219 10.2822 7.76953 10.5479 7.98047C10.8135 8.19141 11.152 8.29688 11.5635 8.29688ZM20.3809 3L18.1621 9H17.2246L15.0059 3H16.0059L17.6621 7.78125H17.7246L19.3809 3H20.3809ZM23.1807 9.14063C22.8005 9.14063 22.4554 9.06901 22.1455 8.92578C21.8356 8.77995 21.5895 8.57031 21.4072 8.29688C21.2249 8.02083 21.1338 7.6875 21.1338 7.29687C21.1338 6.95312 21.2015 6.67448 21.3369 6.46094C21.4723 6.24479 21.6533 6.07552 21.8799 5.95312C22.1064 5.83073 22.3564 5.73958 22.6299 5.67969C22.9059 5.61719 23.1833 5.56771 23.4619 5.53125C23.8265 5.48437 24.1221 5.44922 24.3486 5.42578C24.5778 5.39974 24.7445 5.35677 24.8486 5.29687C24.9554 5.23698 25.0088 5.13281 25.0088 4.98437V4.95312C25.0088 4.56771 24.9033 4.26823 24.6924 4.05469C24.484 3.84115 24.1676 3.73437 23.7432 3.73437C23.3031 3.73437 22.958 3.83073 22.708 4.02344C22.458 4.21615 22.2822 4.42187 22.1807 4.64062L21.3057 4.32812C21.4619 3.96354 21.6702 3.67969 21.9307 3.47656C22.1937 3.27083 22.4801 3.1276 22.79 3.04687C23.1025 2.96354 23.4098 2.92188 23.7119 2.92188C23.9046 2.92188 24.126 2.94531 24.376 2.99219C24.6286 3.03646 24.8721 3.12891 25.1064 3.26953C25.3434 3.41016 25.54 3.6224 25.6963 3.90625C25.8525 4.1901 25.9307 4.57031 25.9307 5.04688V9H25.0088V8.1875H24.9619C24.8994 8.31771 24.7952 8.45703 24.6494 8.60547C24.5036 8.75391 24.3096 8.88021 24.0674 8.98437C23.8252 9.08854 23.5296 9.14063 23.1807 9.14063ZM23.3213 8.3125C23.6859 8.3125 23.9932 8.24089 24.2432 8.09766C24.4958 7.95443 24.6859 7.76953 24.8135 7.54297C24.9437 7.31641 25.0088 7.07812 25.0088 6.82812V5.98437C24.9697 6.03125 24.8838 6.07422 24.751 6.11328C24.6208 6.14974 24.4697 6.18229 24.2979 6.21094C24.1286 6.23698 23.9632 6.26042 23.8018 6.28125C23.6429 6.29948 23.514 6.3151 23.415 6.32812C23.1755 6.35937 22.9515 6.41016 22.7432 6.48047C22.5374 6.54818 22.3708 6.65104 22.2432 6.78906C22.1182 6.92448 22.0557 7.10937 22.0557 7.34375C22.0557 7.66406 22.1742 7.90625 22.4111 8.07031C22.6507 8.23177 22.9541 8.3125 23.3213 8.3125ZM34.1758 3.5H33.207C33.1497 3.22135 33.0495 2.97656 32.9063 2.76562C32.7656 2.55469 32.5938 2.3776 32.3906 2.23438C32.1901 2.08854 31.9674 1.97917 31.7227 1.90625C31.4779 1.83333 31.2227 1.79687 30.957 1.79687C30.4727 1.79687 30.0339 1.91927 29.6406 2.16406C29.25 2.40885 28.9388 2.76953 28.707 3.24609C28.4779 3.72266 28.3633 4.30729 28.3633 5C28.3633 5.69271 28.4779 6.27734 28.707 6.75391C28.9388 7.23047 29.25 7.59115 29.6406 7.83594C30.0339 8.08073 30.4727 8.20312 30.957 8.20312C31.2227 8.20312 31.4779 8.16667 31.7227 8.09375C31.9674 8.02083 32.1901 7.91276 32.3906 7.76953C32.5938 7.6237 32.7656 7.44531 32.9063 7.23437C33.0495 7.02083 33.1497 6.77604 33.207 6.5H34.1758C34.1029 6.90885 33.9701 7.27474 33.7773 7.59766C33.5846 7.92057 33.3451 8.19531 33.0586 8.42187C32.7721 8.64583 32.4505 8.81641 32.0938 8.93359C31.7396 9.05078 31.3607 9.10937 30.957 9.10937C30.2747 9.10937 29.668 8.94271 29.1367 8.60938C28.6055 8.27604 28.1875 7.80208 27.8828 7.1875C27.5781 6.57292 27.4258 5.84375 27.4258 5C27.4258 4.15625 27.5781 3.42708 27.8828 2.8125C28.1875 2.19792 28.6055 1.72396 29.1367 1.39062C29.668 1.05729 30.2747 0.890625 30.957 0.890625C31.3607 0.890625 31.7396 0.949218 32.0938 1.06641C32.4505 1.18359 32.7721 1.35547 33.0586 1.58203C33.3451 1.80599 33.5846 2.07943 33.7773 2.40234C33.9701 2.72266 34.1029 3.08854 34.1758 3.5ZM35.6162 9V3H36.5381V9H35.6162ZM36.085 2C35.9053 2 35.7503 1.9388 35.6201 1.81641C35.4925 1.69401 35.4287 1.54688 35.4287 1.375C35.4287 1.20313 35.4925 1.05599 35.6201 0.933593C35.7503 0.811198 35.9053 0.75 36.085 0.75C36.2646 0.75 36.4183 0.811198 36.5459 0.933593C36.6761 1.05599 36.7412 1.20313 36.7412 1.375C36.7412 1.54688 36.6761 1.69401 36.5459 1.81641C36.4183 1.9388 36.2646 2 36.085 2ZM40.8359 3V3.78125H37.7266V3H40.8359ZM38.6328 1.5625H39.5547V7.28125C39.5547 7.54167 39.5924 7.73698 39.668 7.86719C39.7461 7.99479 39.8451 8.08073 39.9648 8.125C40.0872 8.16667 40.2161 8.1875 40.3516 8.1875C40.4531 8.1875 40.5365 8.18229 40.6016 8.17187C40.6667 8.15885 40.7188 8.14844 40.7578 8.14062L40.9453 8.96875C40.8828 8.99219 40.7956 9.01563 40.6836 9.03906C40.5716 9.0651 40.4297 9.07813 40.2578 9.07813C39.9974 9.07813 39.7422 9.02214 39.4922 8.91016C39.2448 8.79818 39.0391 8.6276 38.875 8.39844C38.7135 8.16927 38.6328 7.88021 38.6328 7.53125V1.5625ZM42.2227 9V3H43.1445V9H42.2227ZM42.6914 2C42.5117 2 42.3568 1.9388 42.2266 1.81641C42.099 1.69401 42.0352 1.54688 42.0352 1.375C42.0352 1.20313 42.099 1.05599 42.2266 0.933593C42.3568 0.811198 42.5117 0.75 42.6914 0.75C42.8711 0.75 43.0247 0.811198 43.1523 0.933593C43.2826 1.05599 43.3477 1.20313 43.3477 1.375C43.3477 1.54688 43.2826 1.69401 43.1523 1.81641C43.0247 1.9388 42.8711 2 42.6914 2ZM44.6611 9V8.29688L48.0674 3.92187V3.85937H44.7705V3H49.2549V3.73437L45.9424 8.07812V8.14062H49.3643V9H44.6611ZM53.1279 9.125C52.5498 9.125 52.0511 8.9974 51.6318 8.74219C51.2152 8.48438 50.8936 8.125 50.667 7.66406C50.443 7.20052 50.3311 6.66146 50.3311 6.04688C50.3311 5.43229 50.443 4.89062 50.667 4.42187C50.8936 3.95052 51.2087 3.58333 51.6123 3.32031C52.0186 3.05469 52.4925 2.92188 53.0342 2.92188C53.3467 2.92188 53.6553 2.97396 53.96 3.07812C54.2646 3.18229 54.542 3.35156 54.792 3.58594C55.042 3.81771 55.2412 4.125 55.3896 4.50781C55.5381 4.89062 55.6123 5.36198 55.6123 5.92187V6.3125H50.9873V5.51562H54.6748C54.6748 5.17708 54.6071 4.875 54.4717 4.60937C54.3389 4.34375 54.1488 4.13411 53.9014 3.98047C53.6566 3.82682 53.3675 3.75 53.0342 3.75C52.667 3.75 52.3493 3.84115 52.0811 4.02344C51.8154 4.20312 51.611 4.4375 51.4678 4.72656C51.3245 5.01562 51.2529 5.32552 51.2529 5.65625V6.1875C51.2529 6.64063 51.3311 7.02474 51.4873 7.33984C51.6462 7.65234 51.8662 7.89062 52.1475 8.05469C52.4287 8.21615 52.7555 8.29688 53.1279 8.29688C53.3701 8.29688 53.5889 8.26302 53.7842 8.19531C53.9821 8.125 54.1527 8.02083 54.2959 7.88281C54.4391 7.74219 54.5498 7.56771 54.6279 7.35937L55.5186 7.60938C55.4248 7.91146 55.2673 8.17708 55.0459 8.40625C54.8245 8.63281 54.5511 8.8099 54.2256 8.9375C53.9001 9.0625 53.5342 9.125 53.1279 9.125ZM57.9365 5.39062V9H57.0146V3H57.9053V3.9375H57.9834C58.124 3.63281 58.3376 3.38802 58.624 3.20313C58.9105 3.01563 59.2803 2.92188 59.7334 2.92188C60.1396 2.92188 60.4951 3.00521 60.7998 3.17187C61.1045 3.33594 61.3415 3.58594 61.5107 3.92187C61.68 4.25521 61.7646 4.67708 61.7646 5.1875V9H60.8428V5.25C60.8428 4.77865 60.7204 4.41146 60.4756 4.14844C60.2308 3.88281 59.8949 3.75 59.4678 3.75C59.1735 3.75 58.9105 3.8138 58.6787 3.94141C58.4495 4.06901 58.2686 4.25521 58.1357 4.5C58.0029 4.74479 57.9365 5.04167 57.9365 5.39062ZM67.6992 4.34375L66.8711 4.57812C66.819 4.4401 66.7422 4.30599 66.6406 4.17578C66.5417 4.04297 66.4063 3.93359 66.2344 3.84766C66.0625 3.76172 65.8424 3.71875 65.5742 3.71875C65.207 3.71875 64.901 3.80339 64.6563 3.97266C64.4141 4.13932 64.293 4.35156 64.293 4.60937C64.293 4.83854 64.3763 5.01953 64.543 5.15234C64.7096 5.28516 64.9701 5.39583 65.3242 5.48437L66.2148 5.70313C66.7513 5.83333 67.151 6.03255 67.4141 6.30078C67.6771 6.56641 67.8086 6.90885 67.8086 7.32812C67.8086 7.67187 67.7096 7.97917 67.5117 8.25C67.3164 8.52083 67.043 8.73438 66.6914 8.89063C66.3398 9.04688 65.931 9.125 65.4648 9.125C64.8529 9.125 64.3464 8.99219 63.9453 8.72656C63.5443 8.46094 63.2904 8.07292 63.1836 7.5625L64.0586 7.34375C64.1419 7.66667 64.2995 7.90885 64.5313 8.07031C64.7656 8.23177 65.0716 8.3125 65.4492 8.3125C65.8789 8.3125 66.2201 8.22135 66.4727 8.03906C66.7279 7.85417 66.8555 7.63281 66.8555 7.375C66.8555 7.16667 66.7826 6.99219 66.6367 6.85156C66.4909 6.70833 66.2669 6.60156 65.9648 6.53125L64.9648 6.29687C64.4154 6.16667 64.0117 5.96484 63.7539 5.69141C63.4987 5.41536 63.3711 5.07031 63.3711 4.65625C63.3711 4.31771 63.4661 4.01823 63.6563 3.75781C63.849 3.4974 64.1107 3.29297 64.4414 3.14453C64.7747 2.99609 65.1523 2.92188 65.5742 2.92188C66.168 2.92188 66.6341 3.05208 66.9727 3.3125C67.3138 3.57292 67.556 3.91667 67.6992 4.34375Z" fill="black"/>
</svg>
