<?xml version="1.0" encoding="iso-8859-1"?>
<!-- Uploaded to: SVG Repo, www.svgrepo.com, Generator: SVG Repo Mixer Tools -->
<svg fill="#000000" height="800px" width="800px" version="1.1" id="Layer_1" xmlns="http://www.w3.org/2000/svg" xmlns:xlink="http://www.w3.org/1999/xlink" 
	 viewBox="0 0 512 512" xml:space="preserve">
<g>
	<g>
		<path d="M481.966,370.4c-16.797-10.885-39.318-6.08-50.207,10.714c-6.443,9.937-18.585,19.787-34.655,28.38l-41.357-88.73
			c12.033,0.765,23.462,5.318,32.868,13.21l10.339,8.676c6.597,5.536,14.759,8.496,23.271,8.496c1.07,0,2.147-0.047,3.226-0.142
			c9.66-0.843,18.412-5.399,24.647-12.829c12.864-15.334,10.857-38.275-4.476-51.142l-10.339-8.677
			c-26.512-22.244-60.102-32.836-94.572-29.816l-150.012,13.124c-12.166,1.066-23.526-6.213-27.655-17.694l-11.918-33.143
			l90.743-12.754c17.474-2.458,34.858,2.041,48.95,12.661l13.739,10.353c5.872,4.424,12.87,6.753,20.094,6.753
			c1.57,0,3.152-0.109,4.735-0.333c8.866-1.244,16.714-5.867,22.099-13.015c5.386-7.149,7.667-15.967,6.421-24.83
			c-1.245-8.863-5.869-16.712-13.016-22.098l-13.74-10.353c-28.389-21.392-63.411-30.449-98.611-25.502l-104.58,14.697
			L83.952,24.018C77.178,5.185,56.341-4.629,37.508,2.143C18.672,8.917,8.86,29.751,15.632,48.588l79.093,219.95
			c9.91,27.558,31.103,48.556,57.045,58.838l-37.594,80.657c-14.744-8.24-25.906-17.541-31.986-26.92
			c-10.889-16.793-33.412-21.595-50.208-10.712C15.186,381.29,10.38,403.813,21.269,420.61
			c18.28,28.196,51.159,51.709,95.081,67.997C157.621,503.911,206.248,512,256.974,512c50.726,0,99.353-8.089,140.624-23.393
			c43.922-16.288,76.801-39.801,95.082-67.998C503.569,403.813,498.764,381.29,481.966,370.4z M376.807,418.828
			c-1.465,0.579-2.947,1.151-4.451,1.708c-5.429,2.012-11.05,3.852-16.812,5.554l-47.456-101.814l23.682-2.072L376.807,418.828z
			 M333.5,431.672c-23.844,5.083-49.715,7.726-76.526,7.726c-27.955,0-54.885-2.88-79.564-8.399l46.304-99.343l60.694-5.31
			L333.5,431.672z M235.651,153.831c29.295-4.118,58.433,3.42,82.058,21.221l13.74,10.353c2.382,1.795,3.924,4.411,4.338,7.366
			c0.416,2.956-0.345,5.894-2.141,8.278c-1.794,2.383-4.41,3.923-7.364,4.338c-0.001,0-0.002,0-0.002,0
			c-2.948,0.416-5.892-0.344-8.276-2.14l-13.739-10.353c-15.491-11.675-33.953-17.818-53.017-17.818
			c-4.141,0-8.314,0.29-12.488,0.877l-95.356,13.401l-7.722-21.475L235.651,153.831z M115.746,260.979L36.654,41.028
			c-2.605-7.245,1.169-15.259,8.413-17.864c7.24-2.606,15.258,1.169,17.864,8.414l79.093,219.951
			c7.559,21.017,28.398,34.339,50.623,32.389l150.013-13.124c28.527-2.501,56.323,6.267,78.264,24.676l10.338,8.676
			c5.898,4.949,6.669,13.773,1.722,19.671c-2.397,2.857-5.764,4.609-9.477,4.934c-0.001,0-0.001,0-0.002,0
			c-3.713,0.321-7.334-0.815-10.191-3.212l-10.339-8.675c-14.412-12.095-32.241-18.56-50.838-18.56
			c-2.337,0-4.688,0.103-7.044,0.308l-150.012,13.124C160.216,314.777,127.59,293.915,115.746,260.979z M173.667,333.271
			c4.812,0.719,9.709,1.1,14.664,1.1c2.881,0,5.787-0.125,8.699-0.381l0.991-0.087l-42.559,91.308
			c-4.734-1.454-9.367-3.008-13.869-4.678c-2.477-0.919-4.901-1.869-7.273-2.845L173.667,333.271z M473.936,408.457
			c-15.644,24.131-44.727,44.603-84.103,59.205c-38.812,14.392-84.755,21.999-132.858,21.999s-94.045-7.608-132.858-21.999
			c-39.377-14.602-68.459-35.074-84.102-59.204c-4.189-6.461-2.341-15.124,4.118-19.311c2.342-1.517,4.972-2.242,7.574-2.242
			c4.578,0,9.069,2.244,11.739,6.36c12.17,18.776,37.166,35.898,70.381,48.214c35.737,13.252,78.322,20.257,123.148,20.257
			c44.826,0,87.411-7.005,123.148-20.257c33.214-12.316,58.21-29.438,70.381-48.213c4.188-6.461,12.852-8.307,19.312-4.121
			C476.276,393.334,478.123,401.997,473.936,408.457z"/>
	</g>
</g>
</svg>